<svg width="422" height="420" viewBox="0 0 422 420" fill="none" xmlns="http://www.w3.org/2000/svg">
<path d="M416.611 143.038L412.301 127.253L220.958 179.449L225.266 195.234C227.207 202.356 271.611 196.438 324.45 182.02C377.287 167.604 418.54 150.145 416.599 143.024L416.611 143.038Z" fill="#FFA235" stroke="#1C1D1F" stroke-width="0.668" stroke-miterlimit="10" stroke-linejoin="round"/>
<path d="M225.267 195.234C226.598 200.132 248.056 198.863 278.518 192.893L270.348 170.484L261.723 174.208L257.943 169.342L220.948 179.433L225.257 195.218L225.267 195.234Z" fill="#1C1D1F" stroke="#1C1D1F" stroke-width="0.668" stroke-miterlimit="10" stroke-linejoin="round"/>
<path d="M320.144 166.185C372.981 151.769 414.238 134.308 412.295 127.186C410.352 120.061 365.945 125.974 313.107 140.392C260.27 154.808 219.011 172.267 220.956 179.391C222.899 186.513 267.307 180.601 320.144 166.185Z" fill="#1C1D1F" stroke="#1C1D1F" stroke-width="0.668" stroke-miterlimit="10" stroke-linejoin="round"/>
<mask id="mask0_159_3028" style="mask-type:alpha" maskUnits="userSpaceOnUse" x="211" y="56" width="172" height="138">
<path d="M218.086 166.916L225.083 158.214C224.694 158.702 224.32 159.182 223.963 159.64C227.632 154.84 233.435 148.594 241.334 141.086C269.686 114.167 314.39 81.1758 341.15 67.4334C343.267 66.3404 345.419 65.3143 347.601 64.3565C347.471 64.4183 347.347 64.4562 347.22 64.516L357.455 60.0003C380.637 49.7732 376.959 62.3518 347.28 90.534C314.927 121.263 263.941 158.883 233.373 174.587C210.512 186.326 205.575 182.468 218.074 166.914L218.086 166.916Z" fill="#44E841" stroke="#44E841" stroke-width="0.668" stroke-miterlimit="10"/>
<path d="M211.843 180.451L221.163 192.542C222.967 194.881 230.121 193.148 242.705 186.683C273.263 170.978 324.259 133.357 356.612 102.632C375.631 84.5536 383.969 72.8997 381.389 69.5617L372.08 57.4734C374.661 60.8133 366.321 72.4792 347.292 90.54C314.939 121.267 263.953 158.889 233.385 174.591C220.798 181.055 213.646 182.789 211.843 180.451Z" fill="#44E841" stroke="#44E841" stroke-width="0.668" stroke-miterlimit="10"/>
</mask>
<g mask="url(#mask0_159_3028)">
<path d="M268.459 252.906C192.518 236.193 144.505 161.082 161.218 85.1412C177.932 9.20041 253.043 -38.8129 328.983 -22.0996C404.924 -5.38624 452.937 69.7247 436.224 145.666C419.511 221.606 344.4 269.62 268.459 252.906Z" fill="#1C1D1F"/>
</g>
<path fill-rule="evenodd" clip-rule="evenodd" d="M223.983 158.767C224.013 158.73 224.042 158.693 224.072 158.656L223.983 158.767ZM212.253 181.796C215.298 182.548 222.032 180.421 232.496 175.049C263.243 159.246 314.562 121.388 347.116 90.4701C376.97 62.1065 380.671 49.4502 357.345 59.741L352.196 62.0128L347.044 64.2846C367.474 55.2732 364.232 66.3711 338.065 91.2154C313.551 114.491 276.858 142.297 249.935 158.437C256.081 154.754 262.737 150.463 269.64 145.756L268.631 152.964C255.27 162.054 242.735 169.784 232.484 175.045C222.032 180.411 215.304 182.54 212.253 181.796Z" fill="url(#paint0_linear_159_3028)"/>
<path fill-rule="evenodd" clip-rule="evenodd" d="M372.094 57.2424L372.064 57.2025L381.428 69.3626C382.823 71.1701 381.044 75.3948 376.125 81.7419C371.895 87.2022 365.344 94.2288 356.494 102.64C323.94 133.559 272.623 171.414 241.874 187.217C229.21 193.724 222.012 195.467 220.198 193.116L210.818 180.948C212.632 183.301 219.83 181.556 232.494 175.051C254.997 163.493 288.492 140.131 317.601 116.315L326.967 128.465C331.515 124.75 336.01 120.97 340.45 117.126L331.082 104.974C332.433 103.804 333.768 102.636 335.084 101.473L344.454 113.629C348.53 110.039 352.541 106.374 356.482 102.636C365.338 94.2308 371.893 87.2022 376.125 81.7419C381.044 75.3948 382.823 71.1701 381.428 69.3626L372.094 57.2424Z" fill="url(#paint1_linear_159_3028)"/>
<path d="M217.1 167.329L224.143 158.57C223.75 159.062 223.374 159.545 223.015 160.007C226.705 155.176 232.546 148.891 240.496 141.334C269.025 114.246 314.01 81.0521 340.935 67.222C343.066 66.1222 345.232 65.0894 347.428 64.1252C347.298 64.187 347.173 64.2249 347.043 64.2846C350.483 62.7681 353.906 61.2596 357.344 59.7411C380.672 49.4502 376.971 62.1065 347.105 90.4681C314.548 121.386 263.244 159.246 232.483 175.047C209.48 186.86 204.512 182.976 217.088 167.327L217.1 167.329Z" stroke="#1C1D1F" stroke-width="0.668" stroke-miterlimit="10"/>
<path d="M210.816 180.947L220.197 193.115C222.01 195.467 229.208 193.723 241.874 187.216C272.621 171.413 323.94 133.558 356.494 102.64C375.633 84.4494 384.023 72.7217 381.426 69.3598L372.06 57.1978C374.657 60.5576 366.263 72.2972 347.114 90.4716C314.56 121.392 263.255 159.249 232.494 175.05C219.83 181.557 212.632 183.3 210.816 180.947Z" fill="#6F84E4" stroke="#1C1D1F" stroke-width="0.668" stroke-miterlimit="10"/>
<path d="M340.45 117.129C336.009 120.972 331.514 124.752 326.967 128.468L317.586 116.302C322.133 112.586 326.628 108.806 331.07 104.963L340.45 117.129ZM335.073 101.462C339.15 97.873 343.16 94.2096 347.102 90.4736C366.255 72.2852 374.644 60.5576 372.06 57.1997L381.426 69.3638C384.023 72.7257 375.631 84.4633 356.482 102.64C352.54 106.376 348.53 110.041 344.453 113.63L335.073 101.462Z" fill="#1C1D1F"/>
<mask id="mask1_159_3028" style="mask-type:alpha" maskUnits="userSpaceOnUse" x="196" y="4" width="98" height="195">
<path fill-rule="evenodd" clip-rule="evenodd" d="M268.069 4.97437L281.654 9.35056C286.572 10.9328 289.986 16.429 291.774 24.9463C293.569 33.5093 293.772 45.3346 292.08 59.9658C289.41 83.0046 282.527 108.724 273.561 131.691C264.6 154.648 253.532 174.915 242.458 187.009C238.418 191.421 234.634 194.47 231.158 196.198C227.681 197.93 224.473 198.354 221.643 197.443L208.058 193.067L208.245 192.485L208.247 192.483L208.249 192.479C199.088 189.512 194.871 171.696 198.255 142.516L198.239 142.508C203.57 96.5657 225.704 39.8345 247.709 15.8192C255.728 7.06083 262.621 3.85839 267.884 5.55028L268.069 4.97437ZM268.069 4.97437L267.884 5.55028L267.886 5.55227L268.069 4.97437Z" fill="#44E841"/>
<path d="M281.653 9.34848L281.48 9.93635L281.466 9.93237L281.653 9.34848ZM268.068 4.97427L268.242 4.38838L268.256 4.39237L268.068 4.97427ZM281.653 9.34848L281.827 8.76259L281.841 8.76857L281.653 9.34848ZM292.08 59.9657L292.685 60.0374V60.0454L292.08 59.9657ZM292.08 59.9657L291.472 59.896V59.888L292.08 59.9657ZM221.642 197.443L221.455 198.025L221.427 198.015L221.399 198.003L221.642 197.443ZM221.642 197.443L221.831 196.859L221.859 196.869L221.887 196.881L221.642 197.443ZM208.057 193.067L207.87 193.651L207.288 193.462L207.475 192.88L208.057 193.067ZM208.244 192.485L207.662 192.298L207.664 192.296L208.244 192.485ZM208.246 192.483L208.828 192.669V192.673L208.246 192.483ZM208.248 192.479L208.436 191.897L209.016 192.085L208.83 192.667L208.248 192.479ZM198.254 142.516L198.494 141.952L198.914 142.131L198.862 142.585L198.254 142.516ZM198.238 142.508L197.999 143.072L197.577 142.892L197.631 142.438L198.238 142.508ZM267.883 5.55019L267.7 6.13408H267.696L267.883 5.55019ZM268.068 4.97427L267.484 4.78694L267.668 4.21899L268.242 4.38838L268.068 4.97427ZM267.885 5.55218L268.467 5.73751L268.282 6.31542L267.702 6.13608L267.885 5.55218ZM281.466 9.93237L267.881 5.55816L268.256 4.39237L281.841 8.76857L281.466 9.93237ZM291.175 25.0717C289.397 16.5983 286.051 11.407 281.466 9.93237L281.841 8.76857C287.094 10.4565 290.575 16.2575 292.371 24.8206L291.175 25.0717ZM291.472 59.896C293.16 45.2987 292.953 33.5451 291.175 25.0717L292.371 24.8206C294.186 33.4734 294.383 45.3724 292.685 60.0374L291.472 59.896ZM272.991 131.47C281.942 108.542 288.807 82.873 291.472 59.896L292.685 60.0374C290.009 83.138 283.112 108.907 274.13 131.914L272.991 131.47ZM242.006 186.596C253.007 174.584 264.041 154.397 272.991 131.47L274.13 131.914C265.157 154.899 254.057 175.247 242.907 187.421L242.006 186.596ZM230.887 195.65C234.268 193.968 237.995 190.977 242.006 186.596L242.909 187.421C238.84 191.865 234.996 194.972 231.431 196.746L230.887 195.65ZM221.831 196.859C224.464 197.708 227.503 197.334 230.887 195.65L231.431 196.746C227.856 198.523 224.48 198.998 221.455 198.025L221.831 196.859ZM208.244 192.485L221.831 196.859L221.455 198.025L207.87 193.651L208.244 192.485ZM208.828 192.673L208.639 193.254L207.475 192.88L207.662 192.298L208.828 192.673ZM208.828 192.673L208.826 192.675L207.664 192.296L208.828 192.673ZM208.83 192.667L208.828 192.669L207.664 192.296V192.292L208.83 192.667ZM208.059 193.061C203.147 191.469 199.735 185.971 197.95 177.453C196.154 168.89 195.951 157.069 197.647 142.444L198.862 142.585C197.174 157.143 197.388 168.819 199.145 177.202C200.913 185.63 204.189 190.522 208.436 191.897L208.059 193.061ZM198.015 143.078L197.999 143.072L198.478 141.946L198.494 141.952L198.015 143.078ZM197.631 142.438C200.303 119.405 207.184 93.686 216.15 70.7189C225.111 47.7618 236.179 27.4949 247.257 15.4066L248.158 16.2316C237.232 28.1566 226.229 48.264 217.29 71.1633C208.356 94.0506 201.505 119.668 198.846 142.579L197.631 142.438ZM247.257 15.4066C251.295 10.9965 255.081 7.94753 258.557 6.21977C262.036 4.48603 265.243 4.05957 268.07 4.96829L267.696 6.13408C265.259 5.3509 262.389 5.67773 259.101 7.31382C255.809 8.95191 252.14 11.8853 248.158 16.2316L247.257 15.4066ZM267.301 5.36287L267.484 4.78694L268.65 5.16159L268.465 5.7395L267.301 5.36287ZM268.65 5.16159L268.465 5.7395L267.301 5.36287L267.484 4.78694L268.65 5.16159ZM268.65 5.16159L268.467 5.73751L267.301 5.36287L267.484 4.78694L268.65 5.16159Z" fill="#44E841"/>
</mask>
<g mask="url(#mask1_159_3028)">
<path d="M131.658 153.429C105.855 89.5006 136.762 16.7593 200.69 -9.04342C264.618 -34.8461 337.36 -3.93932 363.162 59.9889C388.965 123.917 358.058 196.658 294.13 222.461C230.202 248.264 157.46 217.357 131.658 153.429Z" fill="#1C1D1F"/>
</g>
<path d="M283.597 103.405C282.389 107.596 281.095 111.762 279.715 115.9L266.003 111.486C267.379 107.347 268.674 103.181 269.885 98.9911L283.597 103.405ZM275.676 75.5598C277.094 68.7095 278.216 61.8013 279.04 54.8545C282.45 25.3849 278.197 7.39786 268.94 4.42261L282.653 8.83667C291.909 11.8139 296.168 29.8129 292.752 59.2726C291.927 66.2191 290.804 73.1272 289.388 79.9778L275.676 75.5598Z" fill="#0BB01C"/>
<path fill-rule="evenodd" clip-rule="evenodd" d="M208.93 193.159C214.221 194.751 221.116 191.493 229.126 182.743C251.333 158.49 273.681 101.237 279.057 54.8505C284.428 8.47793 270.787 -9.47126 248.581 14.7812C231.174 33.7786 213.687 73.0568 204.347 111.48L205.419 109.057C203.177 118.301 201.473 127.472 200.469 136.217L200.473 136.229C195.76 176.876 207.721 192.597 227.171 171.346L227.181 171.336L227.183 171.33C207.733 192.581 195.772 176.86 200.485 136.211C205.184 95.5954 224.785 45.3847 244.239 24.1454C260.496 6.3835 271.516 14.4603 271.949 41.3194L280.205 34.3406C280.287 39.0515 280.078 44.2508 279.555 49.9442L271.379 55.0019C271.25 56.4246 271.103 57.8455 270.939 59.2646C267.567 88.3994 256.539 122.448 243.394 147.217L247.613 155.22C244.892 160.366 241.926 165.378 238.725 170.24L235.614 160.379C233.183 164.036 230.718 167.318 228.251 170.146L230.317 181.362C229.913 181.828 229.508 182.296 229.106 182.737C221.106 191.475 214.217 194.735 208.93 193.159Z" fill="url(#paint2_linear_159_3028)"/>
<path d="M208.746 193.109L222.459 197.525C227.777 199.237 234.726 196.009 242.825 187.165C265.031 162.912 287.378 105.659 292.755 59.2726C296.166 29.801 291.912 11.8139 282.655 8.83866L268.943 4.42261C278.199 7.39786 282.458 25.3969 279.042 54.8565C273.666 101.243 251.318 158.496 229.111 182.749C221.014 191.595 214.065 194.821 208.746 193.109Z" stroke="#1C1D1F" stroke-width="0.614" stroke-miterlimit="10"/>
<path d="M198.644 142.664C204.025 96.2875 226.368 39.0222 248.58 14.7818C270.786 -9.47066 284.427 8.48053 279.056 54.8511C273.68 101.238 251.332 158.491 229.126 182.743C206.931 206.992 193.284 189.056 198.66 142.67L198.644 142.664Z" stroke="#1C1D1F" stroke-width="0.614" stroke-miterlimit="10"/>
<mask id="mask2_159_3028" style="mask-type:alpha" maskUnits="userSpaceOnUse" x="66" y="6" width="185" height="182">
<path fill-rule="evenodd" clip-rule="evenodd" d="M70.078 104.16C83.4597 152.434 132.543 189.879 179.706 187.822C200.507 186.917 217.462 178.482 228.771 165.194L232.902 160.852C248.94 144 255.162 118.215 247.296 89.8479C233.918 41.5921 184.836 4.14535 137.662 6.19794C118.212 7.0389 102.124 14.4681 90.871 26.3053L85.4486 32.0068C80.7085 36.8062 76.7817 42.3457 73.8225 48.4075C66.1124 63.9315 64.2989 83.3474 70.0681 104.154L70.078 104.16ZM179.872 23.8024C187.738 27.7596 195.149 32.5649 201.972 38.1326L202.321 38.4176C220.525 53.3537 234.742 73.6823 241.041 96.4082C246.812 117.225 245 136.651 237.288 152.177C237.021 152.723 236.746 153.263 236.465 153.797C244.873 138.014 247.025 117.958 241.051 96.4122C232.338 64.9837 208.484 38.1366 179.872 23.8024Z" fill="#44E841"/>
</mask>
<g mask="url(#mask2_159_3028)">
<path d="M218.653 -11.0326C157.009 -41.6356 82.3488 -16.7157 51.8951 44.6277C21.4413 105.971 46.726 180.508 108.37 211.111C170.014 241.714 244.674 216.794 275.128 155.451C305.582 94.1077 280.297 19.5704 218.653 -11.0326Z" fill="#E84142"/>
</g>
<path fill-rule="evenodd" clip-rule="evenodd" d="M125.718 98.6804C123.057 104.878 128.141 110.498 135.662 115.691L131.008 123.722L137.082 127.317L141.612 119.497C143.206 120.442 144.852 121.382 146.489 122.317L141.929 130.187L147.997 133.78L152.65 125.753C153.977 126.51 155.281 127.255 156.54 128.001L156.526 128.024L164.9 132.987L167.923 127.765C167.923 127.765 163.399 125.179 163.511 125.155C161.052 123.7 160.916 122.076 161.259 120.946L166.56 111.799C166.345 111.672 166.137 111.534 165.936 111.385L166.576 111.763L174.003 98.9495C174.473 98.3895 175.504 97.6661 177.224 98.6804C177.178 98.5808 181.638 101.295 181.638 101.295L186.225 96.1715L178.322 91.4904C177.429 90.9623 176.548 90.4302 175.679 89.9061L174.001 88.8938L178.704 80.7691L172.638 77.1781L167.981 85.2131C166.335 84.1987 164.729 83.2342 163.154 82.3036L167.792 74.3064L161.718 70.7114L157.02 78.8182C146.538 73.2443 138.19 71.0821 132.838 78.2741C128.521 84.0632 130.546 88.9854 135.69 93.539C131.333 92.9013 127.656 94.1388 125.718 98.6804ZM144.275 86.345C147.499 80.7731 158.304 87.3354 163.24 90.3346C163.682 90.6036 164.077 90.8427 164.416 91.044L158.18 101.805C157.685 101.514 157.186 101.227 156.686 100.944C151.534 98.0248 140.978 92.0404 144.271 86.345H144.275ZM154.336 106.128C150.217 103.615 141.241 98.1384 138.306 103.198C135.307 108.377 144.117 113.343 148.422 115.769C148.904 116.042 149.33 116.283 149.677 116.486L155.333 106.729C155.046 106.56 154.711 106.355 154.336 106.128Z" fill="white"/>
<path d="M188.647 44.1921C148.981 19.7859 100.993 25.7334 81.4613 57.4764C61.9298 89.2194 78.2517 134.737 117.917 159.144C157.583 183.55 205.572 177.602 225.103 145.859C244.635 114.116 228.313 68.5984 188.647 44.1921Z" fill="#E84142"/>
<mask id="mask3_159_3028" style="mask-type:alpha" maskUnits="userSpaceOnUse" x="73" y="29" width="161" height="146">
<path d="M188.646 44.1915C148.98 19.7852 100.992 25.7328 81.4603 57.4758C61.9288 89.2188 78.2508 134.737 117.916 159.143C157.582 183.549 205.571 177.602 225.102 145.859C244.634 114.116 228.312 68.5978 188.646 44.1915Z" fill="white"/>
</mask>
<g mask="url(#mask3_159_3028)">
<path d="M121.396 80.3363C121.683 84.9994 125.346 87.2513 129.639 85.4059L156.663 73.8716C160.922 72.0781 160.669 68.2439 156.153 65.4679L127.504 47.8396C122.925 45.0218 119.388 46.5223 119.707 51.1317L121.396 80.3363ZM124.228 115.212L125.402 130.87L125.884 137.57C126.267 142.293 130.083 144.642 134.473 142.855L214.977 109.754C219.367 107.966 218.998 104.134 214.227 101.199L202.095 93.7339L193.779 88.6183L192.348 87.7375C188.394 85.3043 182.139 84.4733 178.488 85.9779L130.238 105.446C126.721 106.886 123.995 111.316 124.228 115.212Z" fill="white"/>
</g>
<path fill-rule="evenodd" clip-rule="evenodd" d="M69.57 104.28C82.9018 152.829 132.072 190.415 179.395 188.253C226.731 186.095 254.293 145.001 240.961 96.4503C234.678 73.5729 220.431 53.1248 202.167 38.1269L195.059 47.0148C192.987 45.3157 190.852 43.6951 188.658 42.1564C207.723 55.556 222.864 75.496 229.084 98.1462C240.772 140.681 216.605 176.707 175.129 178.602C133.663 180.505 90.5502 147.54 78.8724 105.011C67.2504 62.7141 91.1102 26.8337 132.186 24.6017L130.612 12.5154C83.6053 14.9526 56.28 55.9187 69.558 104.274L69.57 104.28ZM171.598 19.831L168.19 30.9648C172.358 32.6534 176.407 34.6207 180.31 36.8535L185.398 26.5507C180.954 24.0039 176.343 21.759 171.598 19.831ZM134.364 24.5141C133.852 24.528 133.342 24.5459 132.834 24.5679C133.344 24.5459 133.854 24.528 134.364 24.5141Z" fill="url(#paint3_linear_159_3028)"/>
<path d="M131.261 11.5807C116.662 12.2443 103.906 16.5946 93.6309 23.7209C104.645 13.4181 119.681 6.98729 137.594 6.17622C184.62 4.03196 233.556 41.407 246.814 89.6907C254.185 116.528 248.966 141.009 234.861 157.809C245.102 141.258 248.155 119.465 241.706 95.9879C228.311 47.2041 178.909 9.39859 131.261 11.5807Z" fill="#1C1D1F"/>
<path d="M246.814 89.6907C233.556 41.407 184.62 4.03196 137.594 6.17622C119.681 6.98729 104.645 13.4181 93.6309 23.7209C103.906 16.5946 116.662 12.2443 131.261 11.5807C178.909 9.39859 228.311 47.2041 241.706 95.9879C248.155 119.465 245.102 141.258 234.861 157.809C248.966 141.009 254.185 116.528 246.814 89.6907ZM246.814 89.6907L247.4 89.5312" stroke="#1C1D1F" stroke-width="0.609"/>
<path fill-rule="evenodd" clip-rule="evenodd" d="M198.021 173.488C224.914 161.862 238.405 132.076 229.082 98.1464C217.409 55.6339 174.298 22.669 132.83 24.5721C94.2632 26.3257 70.6565 57.6128 76.9378 96.1855L198.021 173.488Z" fill="url(#paint4_linear_159_3028)"/>
<path d="M83.3484 33.0895C112.782 1.57527 168.764 5.73227 208.425 42.7745C248.088 79.8148 256.055 135.382 226.623 166.898C197.189 198.413 141.205 194.256 101.545 157.215C61.8839 120.175 53.9166 64.6057 83.3484 33.0895Z" stroke="#1C1D1F" stroke-width="0.609"/>
<mask id="mask4_159_3028" style="mask-type:alpha" maskUnits="userSpaceOnUse" x="15" y="78" width="193" height="131">
<path fill-rule="evenodd" clip-rule="evenodd" d="M178.335 201.752C140.107 217.398 79.2472 204.008 42.3943 171.844C5.54531 139.69 6.6832 100.938 44.9132 85.2928C83.1511 69.6433 144.011 83.033 180.848 115.191C203.363 134.84 211.703 156.946 206.065 174.742" fill="#0500FF"/>
</mask>
<g mask="url(#mask4_159_3028)">
<path d="M62.6065 42.5357C8.94568 73.548 -9.41457 142.189 21.5978 195.85C52.6101 249.511 121.251 267.871 174.912 236.859C228.573 205.847 246.933 137.205 215.921 83.5445C184.909 29.8836 116.267 11.5233 62.6065 42.5357Z" fill="#687EE3"/>
</g>
<path fill-rule="evenodd" clip-rule="evenodd" d="M121.399 163.293C129.37 165.404 133.25 162.139 135.582 157.177L146.447 160.742L147.672 156.707L137.091 153.236C137.413 152.175 137.708 151.079 138.001 149.991L148.651 153.487L149.876 149.455L139.014 145.888C139.249 145.005 139.484 144.138 139.737 143.301L139.771 143.311L141.465 137.749L134.4 135.432C134.4 135.432 133.587 138.441 133.513 138.363C133.015 139.995 131.299 140.019 129.91 139.732L117.531 135.671C117.488 135.814 117.429 135.951 117.356 136.081L117.483 135.657L100.144 129.964C99.3229 129.615 98.0715 128.871 98.4142 127.728C98.3226 127.756 99.305 124.796 99.305 124.796L91.6486 121.402L90.0544 126.654C89.8731 127.245 89.6837 127.829 89.4964 128.407L89.1377 129.521L78.1474 125.916L76.9218 129.948L87.7966 133.517C87.4336 134.578 87.0901 135.647 86.7663 136.721L75.9453 133.168L74.7178 137.203L85.6882 140.804C84.2653 147.797 85.6264 153.465 95.8853 157.478C104.15 160.713 108.633 159.533 111.322 156.181C112.567 159.16 115.562 161.755 121.399 163.293ZM99.6179 149.935C92.0791 147.462 94.4406 140.292 95.5187 137.014C95.6163 136.721 95.702 136.458 95.7698 136.235L110.331 141.014C110.247 141.289 110.158 141.625 110.058 142.01C109.161 145.438 107.322 152.462 99.6159 149.937L99.6179 149.935ZM116.778 143.859C115.867 146.592 113.88 152.55 120.728 154.798C127.734 157.098 129.237 151.233 129.974 148.369C130.056 148.046 130.13 147.761 130.199 147.532L116.993 143.198C116.935 143.387 116.862 143.61 116.778 143.859Z" fill="white"/>
<path d="M33.6735 117.436C24.6617 143.749 52.5898 177.148 96.0526 192.033C139.516 206.917 182.055 197.652 191.066 171.339C200.078 145.025 172.15 111.627 128.687 96.7416C85.2244 81.8567 42.6853 91.1217 33.6735 117.436Z" fill="#687EE3"/>
<path d="M84.5404 134.858L57.1313 125.472L97.5056 162.117L84.5404 134.858Z" fill="#D2D8EC"/>
<path d="M126.833 149.344L91.5522 137.259L104.517 164.521L126.833 149.344Z" fill="#C4C8D8"/>
<path d="M167.456 163.255L126.833 149.342L104.518 164.519L167.456 163.255Z" fill="#D0D6EA"/>
<path d="M84.5404 134.858L57.1313 125.472L111.495 121.269L84.5404 134.858Z" fill="#DEE2F6"/>
<path d="M126.835 149.341L91.5542 137.258L118.509 123.67L126.835 149.341Z" fill="#D2D8EC"/>
<path d="M167.457 163.253L126.833 149.341L118.507 123.67L167.457 163.253Z" fill="#DEE2F6"/>
<path fill-rule="evenodd" clip-rule="evenodd" d="M50.0283 170.999C82.3217 199.18 135.683 210.923 169.174 197.207C151.681 204.369 120.42 205.393 93.0709 194.929L127.008 96.612C100.919 87.9034 72.824 86.7157 52.2363 95.1393C18.7373 108.846 17.7409 142.829 50.0283 170.999ZM141.235 102.21C138.229 100.906 135.203 99.649 132.158 98.4394C135.226 99.5921 138.253 100.85 141.235 102.21ZM188.58 141.745C189.529 143.471 190.423 145.256 191.256 147.106L191.515 147.684C190.656 145.647 189.676 143.664 188.58 141.745ZM175.677 194.06C177.939 192.744 180.107 191.272 182.165 189.656C180.131 191.305 177.96 192.778 175.677 194.06Z" fill="url(#paint5_linear_159_3028)"/>
<path d="M105.564 80.825L109.446 69.3066C87.4813 65.6099 65.8653 66.7956 48.7731 73.7904C34.1758 79.7688 24.983 89.1011 21.2604 100.159L17.3784 111.678C21.1169 100.625 30.3037 91.2812 44.8911 85.3088C61.9834 78.314 83.6053 77.1383 105.564 80.825ZM132.288 87.6942C137.316 89.4472 142.255 91.4477 147.086 93.6885L150.968 82.1701C146.135 79.9337 141.196 77.9332 136.17 76.1757L132.288 87.6942Z" fill="#1C1D1F"/>
<path fill-rule="evenodd" clip-rule="evenodd" d="M30.9294 93.2322C7.08551 111.763 10.7164 144.25 42.3741 171.878C79.2111 204.038 140.071 217.428 178.311 201.776C216.539 186.131 217.679 147.379 180.83 115.225C145.269 84.1908 87.3577 70.6357 48.9942 83.7783C53.3294 82.3183 57.7705 81.1944 62.2782 80.4164L66.9374 90.9325C99.8864 84.9401 143.487 97.0105 171.364 121.343C203.66 149.525 202.671 183.502 169.158 197.203L169.174 197.209C135.683 210.923 82.3219 199.18 50.0285 170.999C32.5277 155.73 24.8075 138.754 26.7386 124.224L15.9495 117.56C17.4242 108.244 22.4241 99.8503 30.9294 93.2322Z" fill="url(#paint6_linear_159_3028)"/>
<path d="M77.5675 89.6485C82.1593 89.355 86.7648 89.345 91.3577 89.6186L89.9269 79.0109C84.7307 78.6928 79.5201 78.6875 74.3232 78.995L77.5675 89.6485Z" fill="white"/>
<path d="M17.3711 111.667L21.2531 100.149C24.9956 89.0967 34.1824 79.7544 48.7697 73.78C87.0077 58.1285 147.868 71.5182 184.707 103.678C207.491 123.562 215.755 145.971 209.713 163.881L205.831 175.399C211.871 157.492 203.615 135.093 180.823 115.196C143.986 83.0366 83.1257 69.6469 44.8877 85.2984C30.2904 91.2768 21.0937 100.611 17.3711 111.667Z" stroke="#1C1D1F" stroke-width="0.612" stroke-linecap="round" stroke-linejoin="round"/>
<path d="M42.3733 171.86C79.2262 204.024 140.086 217.413 178.314 201.768C216.554 186.118 217.682 147.37 180.827 115.208C143.99 83.0486 83.1301 69.6589 44.8922 85.3084C6.66422 100.954 5.52633 139.706 42.3733 171.86Z" stroke="#1C1D1F" stroke-width="0.612" stroke-linecap="round" stroke-linejoin="round"/>
<mask id="mask5_159_3028" style="mask-type:alpha" maskUnits="userSpaceOnUse" x="1" y="164" width="200" height="118">
<path fill-rule="evenodd" clip-rule="evenodd" d="M183.381 235.488C153.256 263.708 92.9297 283.915 48.6635 280.637C24.6861 278.861 10.3339 270.555 7.00391 258.83L3.05019 246.068C-0.0386548 236.076 4.97723 223.535 18.9866 210.419C49.1218 182.206 109.444 161.983 153.702 165.272C177.381 167.025 191.675 175.154 195.23 186.652L199.182 199.402C202.556 209.466 197.596 222.18 183.381 235.488ZM163.054 178.972C161.304 178.76 159.548 178.589 157.789 178.46C159.599 178.593 161.355 178.765 163.054 178.972Z" fill="#44E841"/>
<path d="M7.00392 258.83L7.57386 258.666L7.56987 258.654L7.00392 258.83ZM199.182 199.402L198.614 199.578L198.618 199.592L199.182 199.402ZM163.052 178.972L162.981 179.56C163.058 179.569 163.136 179.563 163.211 179.543C163.286 179.522 163.356 179.486 163.417 179.438C163.479 179.391 163.53 179.331 163.568 179.263C163.606 179.196 163.631 179.121 163.64 179.044C163.65 178.967 163.644 178.888 163.623 178.813C163.602 178.738 163.567 178.668 163.519 178.607C163.471 178.546 163.411 178.495 163.344 178.456C163.276 178.418 163.201 178.394 163.124 178.384L163.052 178.972ZM59.6797 198.864C59.5381 198.932 59.4292 199.054 59.3771 199.202C59.3249 199.35 59.3338 199.513 59.4017 199.654C59.4696 199.796 59.591 199.905 59.7392 199.957C59.8874 200.009 60.0502 200 60.1919 199.932L59.6797 198.864ZM36.0351 213.916C36.1638 213.825 36.2513 213.688 36.2784 213.533C36.3055 213.378 36.27 213.219 36.1796 213.09C36.0892 212.961 35.9514 212.874 35.7965 212.847C35.6416 212.819 35.4823 212.855 35.3536 212.945L36.0351 213.916ZM23.0719 223.607L22.6674 223.174C22.6262 223.212 22.5907 223.256 22.5617 223.304L23.0719 223.607ZM23.0719 223.607L22.5617 223.304C22.4896 223.427 22.4641 223.572 22.4899 223.712C22.5157 223.852 22.5911 223.979 22.7023 224.068C22.8136 224.157 22.9532 224.203 23.0957 224.198C23.2382 224.193 23.374 224.136 23.4784 224.039L23.0719 223.607ZM48.6197 281.229C70.8514 282.875 97.0787 278.624 121.512 270.438C145.944 262.251 168.642 250.107 183.786 235.922L182.975 235.056C167.995 249.089 145.466 261.159 121.138 269.312C96.8097 277.464 70.7418 281.677 48.7073 280.045L48.6197 281.229ZM6.43198 258.991C8.15377 265.047 12.7093 270.169 19.8097 273.987C26.908 277.803 36.5791 280.336 48.6197 281.229L48.7073 280.045C36.7704 279.162 27.2767 276.655 20.3717 272.943C13.4706 269.232 9.18405 264.336 7.57386 258.666L6.43398 258.991H6.43198ZM7.56987 258.654L3.61615 245.892L2.48424 246.243L6.43796 259.005L7.56987 258.654ZM3.61615 245.892C0.628935 236.235 5.43359 223.92 19.3912 210.853L18.5821 209.986C4.52088 223.151 -0.71023 235.916 2.48424 246.243L3.61615 245.892ZM19.3912 210.853C34.3771 196.822 56.9077 184.749 81.2359 176.595C105.562 168.44 131.628 164.225 153.658 165.863L153.746 164.68C131.518 163.028 105.293 167.28 80.8593 175.471C56.4275 183.659 33.7294 195.803 18.5821 209.986L19.3912 210.853ZM153.658 165.863C165.446 166.736 174.852 169.193 181.735 172.832C188.614 176.467 192.945 181.266 194.664 186.828L195.798 186.477C193.961 180.538 189.365 175.522 182.289 171.782C175.217 168.043 165.637 165.56 153.746 164.68L153.658 165.863ZM194.664 186.828L198.614 199.578L199.748 199.227L195.798 186.477L194.664 186.828ZM183.786 235.922C198.052 222.565 203.231 209.617 199.744 199.215L198.618 199.592C201.88 209.312 197.141 221.793 182.975 235.056L183.786 235.922ZM163.124 178.384C161.365 178.17 159.601 177.998 157.833 177.868L157.746 179.052C159.545 179.185 161.293 179.355 162.981 179.56L163.124 178.384ZM157.833 177.868C127.666 175.634 90.1258 184.257 59.6797 198.864L60.1919 199.932C90.4965 185.395 127.828 176.838 157.746 179.052L157.833 177.868ZM157.833 177.868C127.666 175.634 90.1258 184.257 59.6797 198.864L60.1919 199.932C90.4965 185.395 127.828 176.836 157.746 179.052L157.833 177.868ZM163.124 178.384C161.365 178.17 159.601 177.998 157.833 177.868L157.746 179.052C159.545 179.183 161.293 179.355 162.981 179.56L163.124 178.384ZM35.3536 212.945C30.7143 216.206 26.4557 219.625 22.6674 223.174L23.4784 224.039C27.2209 220.534 31.4357 217.148 36.0351 213.916L35.3536 212.945ZM35.3536 212.945C30.7143 216.206 26.4557 219.625 22.6674 223.174L23.4784 224.039C27.2209 220.534 31.4357 217.148 36.0351 213.916L35.3536 212.945Z" fill="#44E841"/>
</mask>
<g mask="url(#mask5_159_3028)">
<path d="M163.33 118.946C106.074 84.9405 32.0924 103.789 -1.91298 161.044C-35.9184 218.3 -17.0703 292.282 40.1854 326.287C97.4411 360.292 171.423 341.444 205.428 284.189C239.434 226.933 220.586 152.951 163.33 118.946Z" fill="#E6007A"/>
</g>
<path fill-rule="evenodd" clip-rule="evenodd" d="M83.619 246.022C85.5221 249.051 92.5109 248.075 100.952 245.773L102.573 250.295L109.027 248.268L107.451 243.868C109.145 243.336 110.875 242.778 112.592 242.224L114.177 246.654L120.627 244.631L119.011 240.111C120.404 239.661 121.771 239.219 123.11 238.8L123.116 238.814L132.016 236.022L130.962 233.085C130.962 233.085 126.211 234.617 126.277 234.555C123.662 235.375 122.578 234.996 122.132 234.514L120.289 229.364C120.107 229.42 119.87 229.49 119.599 229.557L120.279 229.344L117.698 222.128C117.688 221.742 117.971 221.03 119.796 220.456C119.703 220.452 124.487 218.986 124.487 218.986L124.593 215.297L116.193 217.931C115.245 218.228 114.304 218.519 113.374 218.806L111.58 219.36L109.938 214.789L103.491 216.81L105.109 221.335C103.336 221.873 101.622 222.403 99.9481 222.929L98.3399 218.426L91.8852 220.448L93.5193 225.014C82.7641 228.683 75.586 232.23 76.2018 236.867C76.694 240.606 81.1101 240.956 87.495 239.657C84.0475 241.644 82.2161 243.808 83.619 246.022ZM89.147 233.414C88.0211 230.279 99.6033 226.724 104.896 225.098L106.154 224.711L108.322 230.769C107.883 230.907 107.349 231.08 106.748 231.275C101.353 233.027 90.2969 236.618 89.1451 233.416L89.147 233.414ZM108.252 233.868C103.828 235.221 94.1928 238.168 95.2112 241.018C96.2534 243.934 105.464 240.928 109.964 239.462C110.47 239.296 110.916 239.151 111.283 239.035L109.316 233.539L108.252 233.868Z" fill="white"/>
<path d="M94.6658 199.777C51.9537 212.743 21.8663 238.202 27.4638 256.64C33.0612 275.079 72.2238 279.515 114.936 266.548C157.648 253.582 187.735 228.123 182.138 209.685C176.54 191.247 137.378 186.811 94.6658 199.777Z" fill="#E6007A"/>
<path d="M108.95 246.826C98.089 250.124 89.9564 255.008 90.7834 257.736C91.6124 260.462 101.086 260.002 111.947 256.706C122.808 253.408 130.942 248.524 130.113 245.795C129.286 243.067 119.811 243.53 108.95 246.826ZM97.6566 209.622C86.7958 212.92 78.6632 217.804 79.4902 220.533C80.3192 223.261 89.793 222.798 100.654 219.502C111.515 216.204 119.649 211.32 118.82 208.592C117.993 205.864 108.517 206.326 97.6566 209.622ZM134.284 231.674C130.086 237.384 131.455 241.77 137.341 241.473C143.228 241.176 151.405 236.308 155.601 230.598C159.8 224.889 158.431 220.503 152.542 220.8C146.656 221.097 138.481 225.967 134.284 231.674ZM54.0022 235.73C49.8034 241.439 51.1724 245.825 57.0592 245.528C62.9459 245.229 71.1224 240.361 75.3193 234.654C79.5161 228.944 78.149 224.558 72.2603 224.855C66.3736 225.152 58.1991 230.02 54.0022 235.73ZM127.232 208.167C122.174 211.192 123.475 215.6 130.137 218.012C136.799 220.423 146.303 219.927 151.361 216.902C156.42 213.877 155.119 209.469 148.457 207.057C141.793 204.644 132.29 205.142 127.232 208.167ZM58.2429 249.426C53.1852 252.451 54.4845 256.859 61.1484 259.271C67.8104 261.684 77.314 261.186 82.3718 258.161C87.4295 255.136 86.1302 250.728 79.4663 248.316C72.8043 245.903 63.3026 246.401 58.2429 249.426Z" fill="white"/>
<path fill-rule="evenodd" clip-rule="evenodd" d="M37.8205 211.509C40.0618 210.014 42.341 208.576 44.6558 207.198L40.5227 193.86C45.2913 191.023 50.1839 188.399 55.1858 185.997L59.3209 199.346C90.1256 184.53 128.142 175.786 158.636 178.045C182.608 179.819 197.083 188.045 200.696 199.683L196.563 186.343C192.962 174.695 178.483 166.461 154.495 164.686C109.745 161.36 48.7809 181.764 18.1993 210.263C22.7389 206.036 27.9601 201.987 33.6874 198.167L37.8205 211.509ZM5.97348 259.722L6.02131 259.878C5.91157 259.525 5.81189 259.169 5.72238 258.81C3.25928 248.88 8.47843 236.596 22.169 223.778C8.47843 236.594 3.26526 248.872 5.72438 258.81C5.8001 259.117 5.8838 259.42 5.97348 259.722Z" fill="#1C1D1F"/>
<path d="M48.0933 281.55C92.9354 284.87 154.045 264.402 184.561 235.815C215.088 207.234 203.478 181.366 158.636 178.046C113.796 174.724 52.6867 195.194 22.1689 223.781C-8.35691 252.359 3.25118 278.23 48.0933 281.55ZM33.1572 227.581C59.8986 202.539 113.477 184.586 152.761 187.494C192.046 190.401 202.237 213.083 175.479 238.129C148.738 263.17 95.1613 281.124 55.8752 278.216C16.591 275.309 6.39981 252.627 33.1572 227.581Z" fill="url(#paint7_linear_159_3028)"/>
<path d="M168.24 190.048C194.226 197.188 198.268 216.806 175.474 238.139C168.268 244.892 159.107 251.114 148.804 256.57L153.934 256.965C165.773 250.721 176.299 243.581 184.565 235.831C210.535 211.519 205.992 189.171 176.46 180.995L168.234 190.058L168.24 190.048Z" fill="url(#paint8_linear_159_3028)"/>
<path d="M118.672 189.431C123.962 188.541 129.292 187.907 134.643 187.532L138.096 178.066C132.126 178.474 126.022 179.202 119.848 180.224L118.672 189.431Z" fill="white"/>
<path d="M6.02788 259.892L1.88882 246.532C-1.24188 236.409 3.84177 223.706 18.0305 210.42C48.5603 181.84 109.664 161.354 154.498 164.686C178.483 166.461 192.965 174.695 196.566 186.343L200.705 199.703C197.102 188.055 182.622 179.821 158.637 178.045C113.797 174.723 52.6874 195.193 22.1696 223.78C7.98082 237.066 2.8912 249.778 6.02788 259.892Z" stroke="#1C1D1F" stroke-width="0.595" stroke-linecap="round" stroke-linejoin="round"/>
<path d="M48.0933 281.55C92.9354 284.87 154.045 264.402 184.561 235.815C215.088 207.234 203.478 181.366 158.636 178.046C113.796 174.724 52.6867 195.194 22.1689 223.781C-8.35691 252.359 3.25118 278.23 48.0933 281.55Z" stroke="#1C1D1F" stroke-width="0.595" stroke-linecap="round" stroke-linejoin="round"/>
<path fill-rule="evenodd" clip-rule="evenodd" d="M55.8756 278.216C95.1597 281.123 148.738 263.17 175.478 238.128C202.237 213.083 192.046 190.401 152.76 187.493C119.831 185.056 76.8578 197.276 48.0678 216.042C55.5408 211.172 63.9723 206.744 72.932 202.896L34.7977 273.816C13.939 265.516 12.1076 247.283 33.1576 227.581C6.39821 252.626 16.5894 275.31 55.8756 278.216Z" fill="url(#paint9_linear_159_3028)"/>
<mask id="mask6_159_3028" style="mask-type:alpha" maskUnits="userSpaceOnUse" x="58" y="196" width="165" height="164">
<path fill-rule="evenodd" clip-rule="evenodd" d="M71.9592 313.784L71.9652 313.772C85.6279 275.185 129.499 229.839 169.916 212.499C191.539 203.215 207.797 203.837 216.155 212.328L206.579 202.593C198.221 194.1 181.958 193.49 160.34 202.765C119.926 220.104 76.0704 265.444 62.3898 304.037C56.0387 321.984 57.3181 335.31 64.5779 342.691L73.679 351.944C81.8854 360.896 98.3519 361.715 120.388 352.267C160.802 334.927 204.676 289.581 218.339 250.994C232.021 212.402 210.338 195.178 169.912 212.511C129.495 229.851 85.6219 275.197 71.9592 313.784Z" fill="#44E841"/>
</mask>
<g mask="url(#mask6_159_3028)">
<path d="M212.415 317.609C240.586 262.639 229.537 200.711 187.736 179.289C145.935 157.867 89.212 185.064 61.0409 240.034C32.8699 295.005 43.9189 356.933 85.7196 378.355C127.52 399.777 184.244 372.58 212.415 317.609Z" fill="#F6921A"/>
</g>
<path fill-rule="evenodd" clip-rule="evenodd" d="M165.169 284.246C171.108 278.519 170.968 274.364 168.766 270.91L177.347 263.324L175.181 261.054L166.825 268.439C166.257 267.843 165.649 267.258 165.042 266.676L173.451 259.241L171.289 256.971L162.71 264.555C162.226 264.096 161.751 263.627 161.287 263.148L161.313 263.125L158.33 259.992L152.75 264.924C152.75 264.924 154.424 266.536 154.326 266.57C155.203 267.491 154.261 268.876 153.284 269.9L143.507 278.543C143.585 278.623 143.65 278.715 143.701 278.814L143.471 278.577L129.775 290.683C129.071 291.231 127.846 291.998 127.232 291.359C127.2 291.44 125.658 289.707 125.658 289.707L118.99 294.772L121.808 297.728C122.127 298.062 122.431 298.399 122.736 298.734L123.322 299.376L114.644 307.052L116.806 309.32L125.395 301.729C125.957 302.377 126.521 302.991 127.083 303.576L118.534 311.133L120.7 313.403L129.364 305.745C133.507 309.116 138.268 309.834 146.827 302.875C153.722 297.273 155.392 293.296 154.524 290.069C157.323 290.019 160.827 288.441 165.169 284.246ZM143.585 297.474C137.633 302.737 133.886 298.557 132.174 296.645C132.039 296.493 131.902 296.342 131.764 296.193L143.262 286.028C143.41 286.183 143.601 286.363 143.814 286.566C145.733 288.379 149.667 292.096 143.585 297.474ZM148.87 281.759C150.291 283.363 153.39 286.859 158.798 282.076C164.332 277.186 161.03 274.107 159.416 272.604C159.237 272.435 159.077 272.285 158.954 272.156L148.523 281.377C148.625 281.482 148.742 281.614 148.87 281.759Z" fill="white"/>
<path d="M155.382 326.111C118.35 351.631 84.5383 353.991 79.7835 331.592C75.0266 309.192 101.246 270.263 138.185 244.823C175.217 219.303 208.991 216.904 213.784 239.345C218.483 261.865 192.321 300.671 155.382 326.111Z" fill="#F6921A"/>
<path d="M166.774 289.615C175.618 282.897 177.615 276.182 177.276 269.589L189.713 261L188.798 256.373L176.64 264.719C176.381 263.479 176.027 262.32 175.803 261.122L188.053 252.696L187.136 248.069L174.701 256.656C174.492 255.664 174.191 254.753 174.02 253.804L172.738 247.441L164.664 252.977C164.664 252.977 165.449 256.325 165.413 256.284C165.758 258.185 164.207 259.968 162.683 261.218L148.482 270.966C148.462 271.13 148.572 271.255 148.588 271.463C148.608 271.297 148.498 271.172 148.482 270.966L128.566 284.649C127.583 285.207 125.955 285.96 125.658 284.679C125.603 284.801 124.909 281.371 124.909 281.371L115.661 286.682L116.946 292.674C117.133 293.83 117.414 294.906 117.564 296.02L104.999 304.647L105.916 309.274L118.351 300.685C118.52 302.006 118.779 303.246 119.096 304.364L106.753 312.869L107.669 317.496L120.236 308.872C122.607 316.117 126.984 319.284 139.04 311.761C148.757 305.677 152.456 299.98 153.319 294.396C155.989 295.598 160.271 294.521 166.774 289.615ZM138.468 301.705C129.076 308.164 128.106 297.65 127.372 294.549L144.022 283.115C144.755 286.215 148.269 294.964 138.468 301.705ZM161.535 283.386C152.96 289.284 152.282 280.42 151.688 277.858L166.798 267.465C167.392 270.03 170.516 277.208 161.535 283.386Z" fill="white"/>
<path d="M71.9516 313.765C74.0022 307.968 76.7403 302.036 80.0464 296.063L70.471 286.327C67.1768 292.307 64.4328 298.252 62.3762 304.029C56.0152 321.972 57.3065 335.302 64.5643 342.683L74.1397 352.42C66.8799 345.039 65.6005 331.713 71.9516 313.765ZM83.6593 266.062C80.3904 270.397 77.321 274.879 74.4606 279.493L84.036 289.228C86.9059 284.62 89.9751 280.138 93.2348 275.797L83.6593 266.062Z" fill="#1C1D1F"/>
<path d="M211.492 257.113C199.517 290.915 161.054 330.673 125.65 345.868C90.2437 361.061 71.2283 345.954 83.2091 312.14C95.1858 278.338 133.647 238.58 169.051 223.386C204.457 208.191 223.473 223.299 211.492 257.113Z" fill="url(#paint10_linear_159_3028)"/>
<path fill-rule="evenodd" clip-rule="evenodd" d="M120.391 352.267C154.899 337.462 191.923 302.241 210.518 268.242C207.688 273.375 204.59 278.355 201.237 283.162L196.622 285.141C179.014 310.559 151.519 334.77 125.654 345.868C90.248 361.063 71.2327 345.955 83.2134 312.142C91.9618 287.449 114.839 259.579 140.339 240.428L137.23 231.925C142.021 228.318 146.983 224.944 152.101 221.818L153.344 231.578C158.585 228.382 163.852 225.62 169.055 223.386C174.297 221.136 179.179 219.552 183.657 218.593L186.726 207.031C198.148 204.602 207.242 205.76 213.393 210.02C204.472 203.833 189.362 204.173 169.912 212.511C129.498 229.851 85.6267 275.197 71.962 313.784C58.2814 352.376 79.9631 369.6 120.391 352.267Z" fill="url(#paint11_linear_159_3028)"/>
<path fill-rule="evenodd" clip-rule="evenodd" d="M73.7953 352.059L74.154 352.424C72.5476 350.78 71.2382 348.869 70.284 346.778C71.2007 348.771 72.3765 350.535 73.7953 352.059ZM80.0448 296.061C81.32 293.753 82.6536 291.478 84.0443 289.238L74.4848 279.517C77.3446 274.902 80.4134 270.42 83.6816 266.085L93.2471 275.81C113.341 249.043 142.43 224.292 169.918 212.499C191.542 203.214 207.799 203.834 216.157 212.328L206.582 202.591C198.224 194.099 181.961 193.49 160.343 202.762C119.929 220.101 76.0731 265.444 62.3925 304.034C58.0303 316.362 57.267 326.507 59.5707 334.044C57.271 326.507 58.0322 316.366 62.4005 304.052C64.4531 298.275 67.1992 292.331 70.4933 286.35L80.0448 296.061Z" fill="url(#paint12_linear_159_3028)"/>
<path d="M74.1533 352.426L64.5779 342.691C57.3181 335.31 56.0387 321.984 62.3898 304.037C76.0704 265.444 119.924 220.104 160.34 202.765C181.958 193.49 198.221 194.1 206.581 202.593L216.155 212.328C207.797 203.837 191.539 203.215 169.916 212.499C129.501 229.839 85.6279 275.185 71.9652 313.772C65.6022 331.713 66.8935 345.045 74.1533 352.426Z" stroke="#1C1D1F" stroke-width="0.585" stroke-linecap="round" stroke-linejoin="round"/>
<path d="M120.391 352.266C160.805 334.927 204.677 289.581 218.342 250.994C232.022 212.401 210.34 195.178 169.912 212.511C129.498 229.85 85.6267 275.197 71.962 313.783C58.2814 352.376 79.9631 369.6 120.391 352.266Z" stroke="#1C1D1F" stroke-width="0.585" stroke-linecap="round" stroke-linejoin="round"/>
<mask id="mask7_159_3028" style="mask-type:alpha" maskUnits="userSpaceOnUse" x="188" y="198" width="101" height="222">
<path fill-rule="evenodd" clip-rule="evenodd" d="M221.154 199.487L205.582 203.263C199.939 204.63 195.658 210.507 192.952 219.903C190.232 229.351 189.026 242.587 189.714 259.124C190.802 285.162 196.385 314.553 204.534 341.032C212.679 367.498 223.404 391.125 234.815 405.595C238.978 410.874 242.967 414.602 246.718 416.826C250.472 419.054 254.031 419.795 257.278 419.008L272.851 415.232L272.863 415.23L272.72 414.638L272.718 414.634L272.7 414.56L272.698 414.552C283.208 411.986 289.406 392.368 288.029 359.39L288.046 359.384C285.872 307.457 265.759 242.053 243.087 213.321C234.825 202.843 227.366 198.684 221.327 200.144V200.141L221.168 199.485L221.154 199.487Z" fill="#44E841"/>
<path d="M205.581 203.263L205.722 203.937L205.744 203.931L205.581 203.263ZM205.581 203.263L205.439 202.59L205.419 202.596L205.581 203.263ZM257.276 419.008L257.438 419.676L258.105 419.514L257.944 418.847L257.276 419.008ZM257.133 418.416L257.8 418.255L256.463 418.578L257.133 418.416ZM257.276 419.008L256.607 419.17L256.77 419.837L257.438 419.676L257.276 419.008ZM272.862 415.23L273.023 415.898L273.691 415.736L273.529 415.067L272.862 415.23ZM272.718 414.638L272.049 414.798L272.051 414.799L272.718 414.638ZM272.716 414.634L273.386 414.473H273.384L272.716 414.634ZM272.696 414.552L272.535 413.885L271.867 414.048L272.029 414.716L272.696 414.552ZM288.027 359.39L287.806 358.738L287.32 358.905L287.342 359.417L288.027 359.39ZM288.045 359.384L288.268 360.033L288.754 359.868L288.733 359.354L288.045 359.384ZM243.085 213.321L242.545 213.745V213.747L243.085 213.321ZM221.326 200.145L220.658 200.306L220.82 200.974L221.489 200.812L221.326 200.145ZM221.166 199.485L221.834 199.324L221.673 198.654L221.005 198.817L221.166 199.485ZM205.744 203.931L221.316 200.157L220.991 198.819L205.419 202.596L205.744 203.931ZM205.722 203.937V203.935L205.439 202.59L205.722 203.937ZM193.612 220.095C196.304 210.746 200.485 205.204 205.744 203.931L205.419 202.596C199.393 204.054 195.011 210.268 192.291 219.714L193.612 220.095ZM190.4 259.096C189.712 242.597 190.918 229.443 193.612 220.095L192.291 219.714C189.541 229.259 188.337 242.577 189.025 259.151L190.4 259.096ZM205.188 340.831C197.056 314.396 191.484 285.064 190.4 259.096L189.025 259.151C190.115 285.257 195.712 314.709 203.875 341.235L205.188 340.831ZM235.353 405.17C224.02 390.798 213.323 367.263 205.188 340.831L203.875 341.235C212.029 367.733 222.787 391.454 234.273 406.021L235.353 405.17ZM247.065 416.234C243.414 414.07 239.486 410.411 235.353 405.17L234.273 406.021C238.466 411.336 242.515 415.134 246.365 417.418L247.065 416.234ZM257.113 418.341C254.092 419.072 250.718 418.4 247.065 416.234L246.365 417.418C250.224 419.706 253.968 420.517 257.438 419.676L257.113 418.341ZM256.463 418.578L256.607 419.17L257.944 418.847L257.8 418.255L256.463 418.578ZM257.944 418.847L257.8 418.255L256.463 418.578L256.607 419.17L257.944 418.847ZM272.688 414.564L257.113 418.341L257.438 419.676L273.011 415.9L272.688 414.564ZM272.698 414.56L272.688 414.564L273.011 415.9L273.023 415.898L272.698 414.56ZM272.051 414.799L272.194 415.391L273.529 415.067L273.386 414.475L272.051 414.799ZM272.049 414.796V414.798L273.386 414.475V414.473L272.049 414.796ZM272.031 414.724L272.049 414.796L273.384 414.473L273.368 414.399L272.031 414.724ZM272.029 414.716L272.031 414.724L273.368 414.399L273.366 414.391L272.029 414.716ZM272.86 415.22C278.497 413.843 282.774 407.962 285.48 398.566C288.2 389.12 289.404 375.888 288.715 359.36L287.342 359.417C288.027 375.87 286.821 388.937 284.159 398.185C281.483 407.484 277.407 412.695 272.535 413.885L272.86 415.22ZM288.248 360.039L288.268 360.033L287.824 358.732L287.806 358.738L288.248 360.039ZM288.733 359.354C287.642 333.322 282.057 303.932 273.91 277.451C265.765 250.985 255.038 227.358 243.625 212.895L242.545 213.747C253.805 228.016 264.472 251.455 272.595 277.856C280.715 304.243 286.275 333.517 287.359 359.411L288.733 359.354ZM243.625 212.895C239.464 207.62 235.473 203.891 231.722 201.665C227.966 199.437 224.409 198.692 221.164 199.477L221.489 200.812C224.283 200.137 227.472 200.742 231.021 202.847C234.574 204.955 238.444 208.544 242.545 213.745L243.625 212.895ZM220.658 200.3V200.306L221.995 199.983L221.993 199.979L220.658 200.3ZM220.499 199.646L220.658 200.3L221.993 199.979L221.834 199.324L220.499 199.646ZM221.316 200.157L221.33 200.153L221.005 198.817L220.991 198.819L221.316 200.157Z" fill="#44E841"/>
</mask>
<g mask="url(#mask7_159_3028)">
<path d="M361.751 377.127C395.952 307.622 367.332 223.551 297.826 189.35C228.321 155.149 144.25 183.769 110.049 253.275C75.8484 322.78 104.468 406.851 173.974 441.052C243.479 475.253 327.55 446.633 361.751 377.127Z" fill="#F0B90B"/>
</g>
<path fill-rule="evenodd" clip-rule="evenodd" d="M253.31 290.298C251.086 281.857 248.262 279.655 245.346 279.664L242.596 267.853L240.484 268.493L243.162 279.993C242.608 280.161 242.05 280.37 241.494 280.577L238.8 269.001L236.69 269.639L239.438 281.448C238.987 281.617 238.547 281.783 238.108 281.916L238.101 281.878L235.187 282.755L236.977 290.436C236.977 290.436 238.511 289.862 238.509 289.967C239.364 289.71 240.036 291.316 240.456 292.751L243.591 306.207C243.667 306.184 243.747 306.179 243.826 306.191L243.603 306.258L247.993 325.11C248.168 326.037 248.349 327.546 247.754 327.731C247.799 327.805 246.217 328.193 246.217 328.193L247.799 336.908L250.548 336.077C250.858 335.985 251.167 335.903 251.474 335.822C251.673 335.77 251.871 335.718 252.064 335.664L254.848 347.611L256.958 346.975L254.204 335.154C254.794 335.021 255.358 334.867 255.904 334.7L258.642 346.465L260.755 345.828L257.979 333.901C261.366 332.135 263.142 328.339 260.807 316.896C258.927 307.681 256.715 303.985 254.316 302.944C255.045 300.447 254.94 296.476 253.31 290.298ZM256.305 316.735C258.212 324.929 254.39 325.892 252.642 326.33C252.487 326.37 252.345 326.406 252.228 326.442L248.543 310.613C248.686 310.569 248.858 310.503 249.053 310.427C250.791 309.75 254.352 308.359 256.305 316.735ZM247.206 303.279C248.668 302.923 251.855 302.147 250.121 294.702C248.347 287.086 245.386 288.275 243.939 288.855C243.776 288.921 243.633 288.979 243.513 289.015L246.855 303.371C246.955 303.341 247.074 303.311 247.206 303.279Z" fill="white"/>
<path d="M268.589 393.244C282.754 390.04 285.521 348.917 274.77 301.393C264.019 253.87 243.821 217.942 229.657 221.146C215.492 224.35 212.725 265.473 223.476 312.997C234.227 360.521 254.425 396.449 268.589 393.244Z" fill="#F0B90B"/>
<path d="M231.027 269.655L236.069 249.967L249.094 265.568L247.246 272.836L239.018 263.003L235.822 275.421L231.027 269.655ZM254.127 287.818L249.333 282.053L246.136 294.47L237.906 284.635L236.061 291.905L239.008 304.942L247.238 314.775L252.272 337.026L257.067 342.793L258.914 335.524L253.88 313.272L257.077 300.855L254.127 287.818ZM262.111 323.106L259.161 310.07L257.314 317.339L260.263 330.374L262.111 323.106ZM265.51 327.18L262.316 339.597L265.263 352.634L270.307 332.947L262.324 297.658L260.477 304.928L265.51 327.18ZM250.648 276.911L255.443 282.676L258.392 295.713L260.239 288.444L257.29 275.409L252.495 269.642L250.648 276.911ZM254.382 346.355L257.332 359.389L262.127 365.157L263.974 357.887L261.025 344.852L259.177 352.12L254.382 346.355ZM244.042 327.194L248.839 332.959L245.889 319.924L241.092 314.157L244.042 327.194ZM239.255 279.488L244.052 285.255L245.897 277.985L241.102 272.218L239.255 279.488ZM232.659 287.832L234.506 280.562L229.71 274.795L227.864 282.065L230.812 295.102L235.608 300.867L232.659 287.832ZM237.693 310.083L232.898 304.316L240.879 339.603L253.904 355.203L250.957 342.168L242.727 332.333L237.693 310.083Z" fill="white"/>
<path d="M195.623 308.503C196.631 313.3 197.737 318.075 198.939 322.827L214.672 319.011C213.472 314.259 212.366 309.484 211.356 304.689L195.623 308.503ZM206.801 277.953C205.767 269.94 205.061 262.073 204.744 254.474C203.359 221.166 209.613 201.362 220.232 198.791L204.499 202.605C193.88 205.176 187.62 224.992 189.011 258.288C189.334 265.875 190.035 273.754 191.068 281.767L206.801 277.953Z" fill="#1C1D1F"/>
<path fill-rule="evenodd" clip-rule="evenodd" d="M261.024 248.142L261.026 248.144L261.032 248.132L261.024 248.142ZM215.854 284.997C221.671 325.234 236.698 368.32 253.243 389.293C273.282 414.715 287.985 398.087 286.066 352.145C284.157 306.24 266.345 248.351 246.3 222.943L246.294 222.923C237.525 211.799 229.777 208.731 223.996 212.642C229.775 208.743 237.517 211.817 246.286 222.935C251.423 229.452 256.411 238.106 261.024 248.142L221.045 312.093C218.916 303.142 217.184 294.101 215.854 284.997Z" fill="url(#paint13_linear_159_3028)"/>
<path fill-rule="evenodd" clip-rule="evenodd" d="M271.874 415.259C265.814 416.602 258.357 412.381 250.105 401.915C227.225 372.9 206.917 306.892 204.728 254.465C202.544 202.057 219.314 183.069 242.193 212.083C260.13 234.814 276.481 280.284 283.771 324.12L282.765 321.302C284.51 331.846 285.662 342.264 286.065 352.147L286.059 352.159C287.98 398.099 273.275 414.729 253.235 389.307L253.231 389.301L253.227 389.287C273.267 414.709 287.97 398.079 286.051 352.139C284.142 306.235 266.33 248.346 246.284 222.935C229.535 201.686 216.516 209.829 213.812 239.89L205.139 231.387C204.657 236.66 204.461 242.503 204.575 248.927L213.319 255.271L213.315 255.101C213.341 256.721 213.391 258.381 213.461 260.083C214.83 293.014 224.373 332.081 237.054 360.925L231.665 369.544C234.459 375.877 237.379 381.764 240.382 387.111L244.684 376.317C247.105 380.616 249.596 384.496 252.127 387.868L248.883 400.269V400.271C249.297 400.827 249.712 401.385 250.126 401.911C258.367 412.363 265.818 416.588 271.874 415.259Z" fill="url(#paint14_linear_159_3028)"/>
<path fill-rule="evenodd" clip-rule="evenodd" d="M204.731 254.466C205.048 262.066 205.756 269.934 206.788 277.945L191.057 281.759C197.137 329.053 214.823 380.923 234.39 405.738C242.734 416.319 250.255 420.51 256.357 419.032L272.088 415.217C265.988 416.696 258.465 412.503 250.123 401.923C236.166 384.223 223.167 352.757 214.651 319.005L198.926 322.819C197.722 318.068 196.616 313.292 195.61 308.495L211.339 304.681C207.756 287.638 205.413 270.426 204.745 254.474C203.356 221.186 209.614 201.37 220.227 198.793L219.775 198.902C209.426 201.914 203.366 221.626 204.731 254.466Z" fill="url(#paint15_linear_159_3028)"/>
<path d="M272.089 415.218L256.355 419.032C250.254 420.51 242.733 416.32 234.391 405.738C211.509 376.723 191.201 310.715 189.013 258.288C187.628 224.98 193.881 205.176 204.501 202.605L220.234 198.791C209.614 201.362 203.355 221.178 204.746 254.474C206.934 306.901 227.243 372.908 250.122 401.924C258.466 412.505 265.987 416.696 272.089 415.218Z" stroke="#1C1D1F" stroke-width="0.69" stroke-miterlimit="10"/>
<path d="M287.577 359.52C285.383 307.105 265.08 241.086 242.193 212.083C219.314 183.069 202.544 202.057 204.728 254.465C206.917 306.892 227.225 372.9 250.105 401.915C272.972 430.922 289.747 411.953 287.559 359.526L287.577 359.52Z" stroke="#1C1D1F" stroke-width="0.69" stroke-miterlimit="10"/>
<mask id="mask8_159_3028" style="mask-type:alpha" maskUnits="userSpaceOnUse" x="213" y="186" width="193" height="124">
<path d="M396.812 280.639C394.006 277.961 391.182 275.274 388.376 272.596C388.846 273.048 389.299 273.493 389.731 273.917C385.275 269.455 378.412 263.792 369.207 257.108C336.173 233.156 285.386 205.173 255.813 194.634C253.472 193.794 251.105 193.028 248.716 192.338C248.858 192.384 248.989 192.406 249.131 192.449L237.919 189.185C212.531 181.792 218.065 194.299 252.648 219.378C290.344 246.717 348.265 278.632 382.051 290.675C407.318 299.676 411.895 295.005 396.824 280.633L396.812 280.639Z" fill="#44E841" stroke="#44E841" stroke-width="0.698" stroke-miterlimit="10"/>
<path d="M405.133 293.781L397.151 307.574C395.609 310.24 387.969 309.431 374.059 304.471C340.287 292.426 282.352 260.516 244.656 233.174C222.492 217.088 212.263 206.178 214.475 202.368L222.442 188.581C220.232 192.392 230.465 203.314 252.637 219.384C290.333 246.725 348.256 278.64 382.04 290.681C395.95 295.639 403.59 296.45 405.133 293.781Z" fill="#44E841" stroke="#44E841" stroke-width="0.698" stroke-miterlimit="10"/>
</mask>
<g mask="url(#mask8_159_3028)">
<path d="M356.517 376.531C432.788 348.798 472.135 264.487 444.402 188.216C416.669 111.946 332.358 72.5992 256.088 100.332C179.817 128.065 140.47 212.376 168.203 288.646C195.936 364.916 280.247 404.264 356.517 376.531Z" fill="#2D374B"/>
</g>
<path fill-rule="evenodd" clip-rule="evenodd" d="M294.962 228.2C295.239 229.635 301.237 233.591 308.944 238.244L308.38 239.675L314.382 243.206L314.932 241.811C316.506 242.738 318.121 243.682 319.725 244.619L319.171 246.022L325.167 249.549L325.735 248.118L329.557 250.358L329.555 250.362L337.831 255.231L338.198 254.298C338.198 254.298 333.762 251.705 333.84 251.737C331.409 250.306 330.697 249.637 330.54 249.324L331.183 247.694C331.014 247.594 330.797 247.465 330.552 247.315L331.183 247.686L332.088 245.404C332.24 245.354 332.758 245.442 334.458 246.44C335.914 247.291 337.367 248.146 338.818 249.005L340.422 248.666L332.61 244.073L329.992 242.529L328.328 241.548L328.898 240.097L322.903 236.572L322.335 238.005C320.693 237.032 319.101 236.094 317.547 235.179L318.113 233.754L312.112 230.225L311.538 231.67C301.417 225.821 294.209 222.037 292.792 222.897C291.648 223.589 295.04 226.194 300.687 229.761C297.106 227.973 294.753 227.148 294.964 228.202L294.962 228.2ZM304.579 230.044C304.97 229.049 315.707 235.39 320.614 238.29L321.781 238.977L321.022 240.894L319.553 240.036C314.512 237.092 304.181 231.06 304.577 230.042L304.579 230.044ZM319.691 241.191C315.594 238.77 306.662 233.491 306.305 234.392C305.939 235.315 314.551 240.338 318.758 242.794L319.992 243.513L320.679 241.773L319.691 241.191Z" fill="white"/>
<path d="M322.85 229.593C283.31 206.189 248.736 191.476 245.626 196.731C242.516 201.985 272.047 225.218 311.586 248.622C351.125 272.025 385.7 286.738 388.81 281.484C391.92 276.229 362.389 252.997 322.85 229.593Z" fill="#2D374B"/>
<path d="M306.154 233.28L298.396 230.773L282.206 216.032L282.631 215.295L279.705 220.373C279.675 220.522 280.102 220.927 280.849 221.459L312.562 243.661C313.31 244.171 314.296 244.753 315.101 245.161L315.412 245.313L315.534 245.372L349.246 261.974L349.376 262.04C349.543 262.126 349.712 262.21 349.874 262.285C350.519 262.59 350.978 262.744 351.165 262.726C351.189 262.724 351.212 262.716 351.233 262.704L353.614 258.565L334.334 251.933C331.893 251.122 327.088 248.481 322.718 245.882L317.592 242.826L351.673 254.288L348.268 251.903L313.666 240.492L300.125 232.485L334.748 243.68L322.594 235.173L321.141 234.157C320.48 233.717 319.797 233.31 319.095 232.937L283.876 215.594L290.608 218.91L306.154 233.28ZM306.5 226.736L317.772 237.028L308.876 234.153L294.083 220.62L306.5 226.736Z" fill="#2D374B"/>
<path d="M317.77 237.028L306.501 226.736L294.082 220.62L308.874 234.151L317.77 237.028ZM282.631 215.295L282.205 216.032L298.396 230.773L306.154 233.282L290.608 218.91L283.875 215.594C283.203 215.289 282.763 215.161 282.657 215.247L282.631 215.295Z" fill="#28A0F0"/>
<path d="M360.355 260.369L351.672 254.289L317.591 242.826L322.718 245.883C327.089 248.482 331.893 251.122 334.335 251.933L353.615 258.565L360.096 260.807L360.355 260.369ZM300.124 232.486L313.665 240.493L348.266 251.903L338.047 244.749L334.747 243.681L300.124 232.486Z" fill="white"/>
<path d="M273.924 216.989C273.814 217.434 275.143 218.685 277.425 220.307L309.555 242.798C312.032 244.479 314.611 246.005 317.275 247.37C329.13 253.209 340.986 259.046 352.843 264.882C355.107 265.947 356.601 266.403 356.942 266.134L360.095 260.807L353.614 258.565L351.233 262.706C351.212 262.717 351.189 262.724 351.165 262.726C350.978 262.744 350.519 262.591 349.874 262.288C349.712 262.212 315.211 245.215 315.101 245.162C314.294 244.753 313.308 244.171 312.562 243.661L280.847 221.459C280.101 220.927 279.675 220.523 279.705 220.373L282.718 215.284C282.822 215.198 283.202 215.29 283.874 215.594L290.608 218.91L294.083 220.622L306.5 226.736L319.095 232.938C319.762 233.293 320.519 233.743 321.141 234.157L334.748 243.683L338.046 244.749L325.82 236.188L324.76 235.449L323.877 234.835C322.783 234.101 321.667 233.399 320.531 232.731C319.487 232.11 318.427 231.517 317.351 230.953L280.773 212.938C278.643 211.956 277.276 211.567 276.971 211.842L273.924 216.989Z" fill="#96BEDC"/>
<path d="M256.007 194.383C285.766 204.989 336.883 233.143 370.113 257.25C403.355 281.351 406.159 292.294 376.383 281.68C346.608 271.066 295.491 242.912 262.273 218.801C229.025 194.716 226.215 183.762 256.007 194.383Z" fill="url(#paint16_linear_159_3028)"/>
<path fill-rule="evenodd" clip-rule="evenodd" d="M404.945 295.211C401.926 296.442 394.652 295.177 383.026 291.034C349.041 278.911 290.743 246.801 252.81 219.289C218.022 194.048 212.454 181.463 238.002 188.902L243.643 190.545L249.285 192.189C226.908 185.674 231.788 196.71 262.278 218.816C290.626 239.372 332 262.895 362.024 275.952C355.344 273.049 348.102 269.629 340.569 265.835L342.602 273.152C357.675 280.719 371.707 286.992 383.038 291.028C394.648 295.165 401.918 296.432 404.945 295.211Z" fill="url(#paint17_linear_159_3028)"/>
<path fill-rule="evenodd" clip-rule="evenodd" d="M222.373 188.394C222.388 188.363 222.405 188.331 222.422 188.301L222.41 188.32L222.373 188.394ZM223.094 215.694C228.184 220.506 235.425 226.379 244.778 233.169C282.711 260.681 341.008 292.791 374.994 304.913C388.991 309.901 396.677 310.717 398.232 308.034L406.263 294.156C404.708 296.841 397.022 296.026 383.025 291.036C358.154 282.172 320.289 262.606 286.9 241.971L278.879 255.829C273.663 252.61 268.493 249.317 263.371 245.952L271.392 232.09C269.846 231.073 268.305 230.049 266.768 229.018L258.747 242.879C254.036 239.727 249.384 236.488 244.792 233.165C235.431 226.381 228.188 220.508 223.094 215.694Z" fill="url(#paint18_linear_159_3028)"/>
<path d="M397.893 280.928C395.068 278.234 392.228 275.532 389.404 272.835C389.876 273.292 390.333 273.738 390.767 274.167C386.285 269.677 379.378 263.977 370.116 257.252C336.874 233.151 285.768 204.99 256.01 194.385C253.654 193.541 251.272 192.771 248.868 192.075C249.011 192.121 249.144 192.143 249.286 192.189L238.005 188.902C212.457 181.463 218.025 194.048 252.823 219.285C290.756 246.797 349.042 278.911 383.039 291.028C408.463 300.087 413.069 295.388 397.905 280.924L397.893 280.928Z" stroke="#1C1D1F" stroke-width="0.698" stroke-miterlimit="10"/>
<path d="M406.263 294.156L398.232 308.032C396.679 310.717 388.991 309.902 374.996 304.912C341.01 292.791 282.713 260.681 244.78 233.169C222.476 216.979 212.184 206.001 214.408 202.169L222.427 188.295C220.203 192.129 230.499 203.119 252.811 219.291C290.744 246.803 349.029 278.917 383.027 291.036C397.022 296.024 404.71 296.839 406.263 294.156Z" stroke="#1C1D1F" stroke-width="0.698" stroke-miterlimit="10"/>
<path d="M263.372 245.954C268.494 249.32 273.664 252.612 278.88 255.831L286.911 241.955C281.697 238.734 276.527 235.441 271.403 232.078L263.372 245.954ZM266.78 229.005C262.069 225.853 257.416 222.614 252.824 219.291C230.509 203.107 220.216 192.129 222.428 188.298L214.409 202.17C212.185 206.005 222.482 216.997 244.793 233.168C249.385 236.492 254.038 239.731 258.749 242.883L266.78 229.005Z" fill="#1C1D1F"/>
<path d="M238.313 186.36L237.673 201.848L420.396 208.993L421.033 193.505C421.133 190.984 380.312 187.333 329.856 185.352C279.401 183.383 238.411 183.827 238.313 186.348V186.36Z" fill="#47FD92" stroke="#1C1D1F" stroke-width="0.602" stroke-miterlimit="10"/>
<path d="M420.401 208.986C420.502 206.461 379.684 202.814 329.226 200.841C278.768 198.868 237.78 199.315 237.676 201.839C237.573 204.362 278.393 208.009 328.851 209.982C379.309 211.955 420.297 211.509 420.401 208.986Z" fill="#1C1D1F" stroke="#1C1D1F" stroke-width="0.602" stroke-miterlimit="10"/>
<defs>
<linearGradient id="paint0_linear_159_3028" x1="229.08" y1="105.338" x2="356.211" y2="133.319" gradientUnits="userSpaceOnUse">
<stop stop-color="white"/>
<stop offset="1" stop-color="white" stop-opacity="0"/>
</linearGradient>
<linearGradient id="paint1_linear_159_3028" x1="366.602" y1="140.932" x2="226.426" y2="110.082" gradientUnits="userSpaceOnUse">
<stop stop-color="white"/>
<stop offset="1" stop-color="white" stop-opacity="0"/>
</linearGradient>
<linearGradient id="paint2_linear_159_3028" x1="211.382" y1="25.1218" x2="270.197" y2="170.842" gradientUnits="userSpaceOnUse">
<stop stop-color="white"/>
<stop offset="1" stop-color="white" stop-opacity="0"/>
</linearGradient>
<linearGradient id="paint3_linear_159_3028" x1="241.716" y1="143.295" x2="68.8366" y2="57.4671" gradientUnits="userSpaceOnUse">
<stop stop-color="white"/>
<stop offset="1" stop-color="white" stop-opacity="0"/>
</linearGradient>
<linearGradient id="paint4_linear_159_3028" x1="83.797" y1="52.7663" x2="235.292" y2="127.979" gradientUnits="userSpaceOnUse">
<stop stop-color="white"/>
<stop offset="1" stop-color="white" stop-opacity="0"/>
</linearGradient>
<linearGradient id="paint5_linear_159_3028" x1="171.011" y1="111.321" x2="50.4089" y2="181.021" gradientUnits="userSpaceOnUse">
<stop stop-color="white"/>
<stop offset="1" stop-color="white" stop-opacity="0"/>
</linearGradient>
<linearGradient id="paint6_linear_159_3028" x1="42.9161" y1="183.526" x2="180.529" y2="103.995" gradientUnits="userSpaceOnUse">
<stop stop-color="white"/>
<stop offset="1" stop-color="white" stop-opacity="0"/>
</linearGradient>
<linearGradient id="paint7_linear_159_3028" x1="38.1073" y1="191.047" x2="168.618" y2="268.557" gradientUnits="userSpaceOnUse">
<stop stop-color="white"/>
<stop offset="1" stop-color="white" stop-opacity="0"/>
</linearGradient>
<linearGradient id="paint8_linear_159_3028" x1="189.428" y1="233.547" x2="154.669" y2="212.904" gradientUnits="userSpaceOnUse">
<stop stop-color="white"/>
<stop offset="1" stop-color="white" stop-opacity="0"/>
</linearGradient>
<linearGradient id="paint9_linear_159_3028" x1="161.516" y1="266.833" x2="47.1331" y2="198.898" gradientUnits="userSpaceOnUse">
<stop stop-color="white"/>
<stop offset="1" stop-color="white" stop-opacity="0"/>
</linearGradient>
<linearGradient id="paint10_linear_159_3028" x1="109.09" y1="359.28" x2="185.593" y2="209.997" gradientUnits="userSpaceOnUse">
<stop stop-color="white"/>
<stop offset="1" stop-color="white" stop-opacity="0"/>
</linearGradient>
<linearGradient id="paint11_linear_159_3028" x1="188.776" y1="197.203" x2="101.476" y2="367.549" gradientUnits="userSpaceOnUse">
<stop stop-color="white"/>
<stop offset="1" stop-color="white" stop-opacity="0"/>
</linearGradient>
<linearGradient id="paint12_linear_159_3028" x1="87.0435" y1="359.052" x2="175.857" y2="185.75" gradientUnits="userSpaceOnUse">
<stop stop-color="white"/>
<stop offset="1" stop-color="white" stop-opacity="0"/>
</linearGradient>
<linearGradient id="paint13_linear_159_3028" x1="216.419" y1="375.949" x2="284.743" y2="237.098" gradientUnits="userSpaceOnUse">
<stop stop-color="white"/>
<stop offset="1" stop-color="white" stop-opacity="0"/>
</linearGradient>
<linearGradient id="paint14_linear_159_3028" x1="283.024" y1="226.746" x2="205.063" y2="385.179" gradientUnits="userSpaceOnUse">
<stop stop-color="white"/>
<stop offset="1" stop-color="white" stop-opacity="0"/>
</linearGradient>
<linearGradient id="paint15_linear_159_3028" x1="281.933" y1="229.155" x2="200.562" y2="394.52" gradientUnits="userSpaceOnUse">
<stop stop-color="white"/>
<stop offset="1" stop-color="white" stop-opacity="0"/>
</linearGradient>
<linearGradient id="paint16_linear_159_3028" x1="259.162" y1="258.761" x2="373.194" y2="217.296" gradientUnits="userSpaceOnUse">
<stop stop-color="white"/>
<stop offset="1" stop-color="white" stop-opacity="0"/>
</linearGradient>
<linearGradient id="paint17_linear_159_3028" x1="377.024" y1="218.424" x2="249.291" y2="264.87" gradientUnits="userSpaceOnUse">
<stop stop-color="white"/>
<stop offset="1" stop-color="white" stop-opacity="0"/>
</linearGradient>
<linearGradient id="paint18_linear_159_3028" x1="243.787" y1="272.648" x2="380.372" y2="222.983" gradientUnits="userSpaceOnUse">
<stop stop-color="white"/>
<stop offset="1" stop-color="white" stop-opacity="0"/>
</linearGradient>
</defs>
</svg>
