<svg width="48" height="48" viewBox="0 0 48 48" fill="none" xmlns="http://www.w3.org/2000/svg">
<rect width="48" height="48" rx="8" fill="#D6EBFF"/>
<circle cx="19.7727" cy="16.2273" r="7.22727" fill="#0086FF"/>
<path d="M10.8409 28.5675L12.6818 26.7266H26.8636L28.9091 28.772L30.5455 30.4084V38.9993H9V30.4084L10.8409 28.5675Z" fill="#0086FF"/>
<path d="M35.7001 19.0898C35.7001 17.433 37.0432 16.0898 38.7001 16.0898C40.3569 16.0898 41.7001 17.433 41.7001 19.0898V23.0898H35.7001V19.0898Z" fill="#1ABC77"/>
<path opacity="0.8" fill-rule="evenodd" clip-rule="evenodd" d="M19.9095 18.2717C19.9095 17.0667 20.8863 16.0898 22.0913 16.0898H39.0001C37.1926 16.0898 35.7274 17.5551 35.7274 19.3626V23.4535L35.7277 23.4535V38.9989H19.9095V18.2717ZM39.0001 23.4535L39.0004 23.4535V16.0898H39.0001V23.4535Z" fill="#1ABC77"/>
<path fill-rule="evenodd" clip-rule="evenodd" d="M33.1803 29.7273L27.274 35.6336L23.5483 31.9095L25.0908 30.3664L27.2737 32.5484L31.6375 28.1846L33.1803 29.7273Z" fill="white"/>
</svg>
