<svg width="48" height="48" viewBox="0 0 48 48" fill="none" xmlns="http://www.w3.org/2000/svg">
<rect width="48" height="48" rx="8" fill="#D6EBFF"/>
<path d="M24.6076 30.925C30.662 30.925 35.5701 26.0169 35.5701 19.9625C35.5701 13.9081 30.662 9 24.6076 9C18.5532 9 13.6451 13.9081 13.6451 19.9625C13.6451 26.0169 18.5532 30.925 24.6076 30.925Z" fill="#1ABC77"/>
<path d="M25.2531 14.0439H24.1027V15.4103C23.1863 15.4881 22.4531 15.7632 21.9032 16.236C21.3534 16.7087 21.0785 17.3098 21.0785 18.0395C21.0785 18.4755 21.1556 18.8468 21.31 19.1533C21.4643 19.4598 21.6862 19.7296 21.9756 19.9627C22.265 20.1959 22.6098 20.4009 23.0102 20.5779C23.4106 20.7549 23.8471 20.9298 24.3198 21.1024C24.7925 21.2751 25.1229 21.4586 25.311 21.6529C25.4991 21.8472 25.5931 22.1149 25.5931 22.4559C25.5931 22.7624 25.4991 23.0031 25.311 23.1779C25.1229 23.3528 24.8648 23.4402 24.5368 23.4402C24.0882 23.4402 23.7422 23.3117 23.4986 23.0549C23.255 22.798 23.1332 22.4235 23.1332 21.9314H20.6949C20.6949 22.825 20.9759 23.5449 21.5378 24.091C22.0998 24.6371 22.9065 24.9598 23.958 25.0591V26.3672H25.1084V25.0656C26.0104 24.9879 26.723 24.7159 27.2464 24.2496C27.7697 23.7834 28.0314 23.1811 28.0314 22.4429C28.0314 22.0069 27.9494 21.6335 27.7854 21.3226C27.6214 21.0118 27.3947 20.7398 27.1053 20.5067C26.8159 20.2736 26.4723 20.0653 26.0743 19.8818C25.6764 19.6983 25.2531 19.5213 24.8045 19.3508C24.3559 19.1803 24.0304 19.0011 23.8278 18.8133C23.6252 18.6255 23.5239 18.3719 23.5239 18.0524C23.5239 17.7373 23.6119 17.4901 23.788 17.311C23.9641 17.1318 24.2112 17.0422 24.5296 17.0422C24.8865 17.0422 25.1614 17.1631 25.3544 17.4048C25.5473 17.6466 25.6438 17.992 25.6438 18.441H28.0893C28.0893 17.6207 27.8372 16.944 27.3332 16.4108C26.8292 15.8777 26.1358 15.5528 25.2531 15.4362V14.0439Z" fill="#006BCC"/>
<path d="M14.3722 23.9836L9 26.6698V35.5688L20.0008 38.6822C21.735 39.173 23.5808 39.0941 25.2669 38.4572L39.2375 33.1794C39.6973 33.0057 39.9188 32.483 39.7237 32.0317C38.7353 29.7462 36.2577 28.4903 33.83 29.0445L26.1531 30.7969L26.0062 29.3273C25.9374 28.64 25.5089 28.041 24.8806 27.754L16.5432 23.9455C15.851 23.6293 15.0529 23.6434 14.3722 23.9836Z" fill="#0086FF"/>
<path fill-rule="evenodd" clip-rule="evenodd" d="M28.1404 30.3421C27.0309 30.72 25.8415 30.925 24.6042 30.925C19.9642 30.925 15.9975 28.0424 14.3973 23.9703C15.0726 23.6419 15.8598 23.6319 16.5436 23.9443L24.8811 27.7528C25.5093 28.0398 25.9379 28.6388 26.0066 29.3261L26.1536 30.7957L28.1404 30.3421Z" fill="#006BCC"/>
</svg>
