<svg width="48" height="48" viewBox="0 0 48 48" fill="none" xmlns="http://www.w3.org/2000/svg">
<rect width="48" height="48" rx="8" fill="#0086FF"/>
<path opacity="0.9" d="M20.2502 31.5005C26.4636 31.5005 31.5005 26.4636 31.5005 20.2502C31.5005 14.0369 26.4636 9 20.2502 9C14.0369 9 9 14.0369 9 20.2502C9 26.4636 14.0369 31.5005 20.2502 31.5005Z" fill="#F5F9FD"/>
<path opacity="0.9" fill-rule="evenodd" clip-rule="evenodd" d="M20.2505 31.5005C26.4638 31.5005 31.5008 26.4636 31.5008 20.2502C31.5008 19.1136 31.3322 18.0164 31.0187 16.9822C29.9845 16.6687 28.8873 16.5001 27.7507 16.5001C21.5373 16.5001 16.5004 21.537 16.5004 27.7504C16.5004 28.887 16.669 29.9842 16.9824 31.0184C18.0167 31.3319 19.1139 31.5005 20.2505 31.5005Z" fill="#F5F9FD"/>
<path fill-rule="evenodd" clip-rule="evenodd" d="M20.2499 34.2265C27.9695 34.2265 34.2275 27.9685 34.2275 20.249C34.2275 19.6468 34.1894 19.0536 34.1155 18.4716C37.0658 20.4996 39.0003 23.8984 39.0003 27.7491C39.0003 33.9624 33.9634 38.9993 27.7501 38.9993C23.8994 38.9993 20.5006 37.0648 18.4725 34.1146C19.0546 34.1884 19.6478 34.2265 20.2499 34.2265Z" fill="#1FE08E"/>
<path fill-rule="evenodd" clip-rule="evenodd" d="M30.3777 11.2857C30.2446 11.1526 30.2446 10.9367 30.3777 10.8036L31.9411 9.24023C32.0743 9.1071 32.2901 9.1071 32.4232 9.24023L37.296 14.1129L38.3187 13.0902V19.2267L30.3777 11.2857Z" fill="#0086FF"/>
<path fill-rule="evenodd" clip-rule="evenodd" d="M17.6227 37.1964L16.0593 38.7597C15.9262 38.8929 15.7103 38.8929 15.5772 38.7597L10.7045 33.8871L9.68176 34.9098V28.7733L17.6227 36.7142C17.7558 36.8474 17.7558 37.0633 17.6227 37.1964Z" fill="#1FE08E"/>
</svg>
