<svg width="755" height="410" viewBox="0 0 755 410" fill="none" xmlns="http://www.w3.org/2000/svg">
<path opacity="0.4" d="M-48.0008 232.273H66.5867C82.482 232.273 97.2239 223.974 105.468 210.386L180.571 86.5908" stroke="#C6E4FF" stroke-width="1.70433" stroke-linecap="round"/>
<path d="M180.292 100.776L172.208 75.666C171.325 72.9261 172.832 69.9902 175.572 69.1083C178.313 68.2264 181.25 69.7326 182.132 72.4724L190.216 97.5822C191.098 100.322 189.591 103.258 186.851 104.14C184.11 105.022 181.174 103.516 180.292 100.776Z" fill="#E8F4FF"/>
<path opacity="0.4" d="M204.621 55.6718L250.083 -16.5012C257.219 -27.8308 269.672 -34.704 283.066 -34.704L362.375 -34.7043C375.692 -34.7043 388.085 -41.4988 395.242 -52.7228L431.952 -110.283" stroke="#C6E4FF" stroke-width="1.70433" stroke-linecap="round"/>
<path d="M203.297 68.5032L195.213 43.3936C194.331 40.6537 195.838 37.7177 198.578 36.8358C201.319 35.9539 204.255 37.4602 205.138 40.2L213.222 65.3096C214.104 68.0495 212.597 70.9856 209.857 71.8674C207.116 72.7493 204.18 71.2431 203.297 68.5032Z" fill="#E8F4FF"/>
<path opacity="0.4" d="M754.019 -316.993L336.868 303.012C305.485 349.658 252.946 377.63 196.716 377.63H-258.473" stroke="#C6E4FF" stroke-width="1.70433" stroke-linecap="round"/>
<path d="M469.215 65.2313C477.438 73.2812 479.633 85.6641 474.685 96.0504C482.738 87.8308 495.121 85.6338 505.511 90.5827C497.288 82.5329 495.093 70.1499 500.041 59.7637C491.992 67.9832 479.605 70.1802 469.215 65.2313Z" fill="#0086FF"/>
<path d="M142.654 350.967C140.431 364.732 129.707 375.56 115.963 377.916C129.73 380.144 140.561 390.868 142.921 404.608C145.145 390.847 155.871 380.017 169.612 377.659C155.848 375.433 145.017 364.708 142.654 350.967Z" fill="#0086FF"/>
</svg>
